<svg version="1.1" id="Layer_1" xmlns="http://www.w3.org/2000/svg" xmlns:xlink="http://www.w3.org/1999/xlink" x="0px" y="0px" viewBox="0 0 324.1 96" style="enable-background:new 0 0 324.1 96;" xml:space="preserve">
 <style type="text/css">
  .st0{fill:#FF6492;}
	.st1{fill:#141446;}
	.st2{fill:#A14474;}
	.st3{fill:#7A77FF;}
 </style>
 <g>
  <path class="st0" d="M82.9,24.4l-41.4-24V17l41.4,23.9V24.4L82.9,24.4z">
  </path>
  <path class="st1" d="M82.9,40.9l-12.4,7.3l-29-16.8l-16.6,9.6l-12.4-6.7l29-17.2C41.4,17,82.9,40.9,82.9,40.9z">
  </path>
  <path class="st2" d="M24.9,40.9l-12.4-6.7v14C12.4,48.2,24.9,40.9,24.9,40.9z">
  </path>
  <path class="st1" d="M0,72l41.4-23.8L82.9,72L41.4,96L0,72z">
  </path>
  <path class="st0" d="M82.9,55.5L41.4,31.1v17.1L82.9,72V55.5z">
  </path>
  <path class="st3" d="M12.4,48.2v-14l29-17.2V0.4L0,24.4V72l41.4-23.8V31.1L12.4,48.2z">
  </path>
  <path d="M108.6,50.3c0-14.4,11.4-25.6,25.8-25.6c9.2,0,16.4,4.5,20.5,11.4l-7.3,5.8c-3.2-4.5-7.2-7.5-13.1-7.5
		c-8.9,0-15.3,7-15.3,15.9c0,9.1,6.3,16,15.3,16c5.7,0,9.8-2.9,13.1-7.4l7.3,5.7c-4.3,6.9-11.4,11.4-20.5,11.4
		C120,76,108.6,64.8,108.6,50.3z M163.9,54.3V25.9h10.3v29.3c0,6.9,4.9,11.2,11,11.2c6,0,10.7-4.3,10.7-11.2V25.9h10.4v28.5
		c0,13.3-9.2,21.7-21.1,21.7C173.1,76,163.9,67.6,163.9,54.3L163.9,54.3z M269.5,50.4c0,14.6-10,25.6-23.8,25.6
		c-7.1,0-13.4-2.9-17.1-7.9v6.8h-9.7V0h10.4v31.9c3.7-4.5,9.5-7.1,16.3-7.1C259.5,24.8,269.5,35.8,269.5,50.4L269.5,50.4z
		 M258.8,50.3c0-9.5-6.5-16-14.9-16c-7.3,0-14.7,5-14.7,16.1c0,11.2,7.4,16,14.7,16C252.3,66.4,258.8,59.8,258.8,50.3z M323.3,53.8
		H287c1.4,8.1,7.5,12.9,15.9,12.9c5.7,0,10.1-2.2,14.2-5.8l5,7.2c-5.2,4.9-11.7,7.9-19.4,7.9c-15.1,0-26.2-11.1-26.2-25.6
		c0-14.4,11-25.7,25.2-25.7c13,0,22.5,9.6,22.5,22.5C324.1,49.9,323.6,52.5,323.3,53.8z M287.2,45.6h26.5c-0.2-7.7-5.8-12-12.5-12
		C294.4,33.7,288.8,38.3,287.2,45.6L287.2,45.6z">
  </path>
 </g>
</svg>