<?xml version="1.0" encoding="UTF-8" standalone="no"?>
<svg
   width="152.26723"
   zoomAndPan="magnify"
   viewBox="0 0 114.20042 125.41253"
   height="167.21671"
   preserveAspectRatio="xMidYMid"
   version="1.0"
   id="svg9"
   xmlns="http://www.w3.org/2000/svg"
   xmlns:svg="http://www.w3.org/2000/svg">
  <defs
     id="defs9" />
  <path
     stroke-linecap="butt"
     fill="none"
     stroke-linejoin="miter"
     d="m 90.39525,117.07268 h -6.765622 c -0.1875,0 -0.28125,-0.0937 -0.28125,-0.28125 -0.04297,-24.05469 -0.03517,-48.371092 0.0234,-72.95313 0.0078,-3.980467 -0.26172,-7.343745 -0.812505,-10.082032 C 79.309275,17.611738 66.539745,4.9047055 50.231145,1.592203 27.528023,-3.0249845 5.9264552,11.803145 1.4811452,34.248455 c -0.50000246,2.52735 -0.74609246,5.835938 -0.73046996,9.921878 0.058575,20.21094 0.066375,46.98438 0.027375,80.312507 0,0.12109 0.062475,0.17969 0.179685,0.17969 H 113.114 c 0.21875,0 0.33203,-0.10938 0.33203,-0.33203 -0.0391,-25.773445 -0.0352,-51.82423 0.004,-78.152357 0.0117,-4.667963 -0.19532,-8.304683 -0.62501,-10.910153 C 110.17634,19.017988 97.66071,5.529703 81.473213,1.881268 80.680245,1.701583 80.645085,1.7992405 81.36774,2.1781405 c 12.300788,6.421875 21.32423,18.2539125 23.71485,32.1992245 0.4375,2.558595 0.65234,5.613278 0.64453,9.16797 -0.0547,24.828128 -0.0625,49.226565 -0.0156,73.195325 0,0.21874 -0.11328,0.33202 -0.33203,0.33202 h -6.699222 c -0.191408,0 -0.285158,-0.0977 -0.285158,-0.28906 -0.03907,-23.511717 -0.03518,-47.54297 0.0078,-72.093755 0.0078,-3.86328 -0.207037,-7.089847 -0.65235,-9.687502 C 94.97322,18.623458 82.7115,5.8343905 66.602123,1.8461155 c -0.90234,-0.22266 -0.945308,-0.10938 -0.128903,0.33984 15.289058,8.3437495 24.28125,23.1601575 24.292965,40.5234375 0.0234,25.710945 0.02738,50.371102 0.0117,73.980477 0,0.25391 -0.12891,0.38281 -0.382815,0.38281"
     stroke="#808080"
     stroke-width="1.5"
     stroke-opacity="1"
     stroke-miterlimit="4"
     id="path2" />
  <path
     stroke-linecap="butt"
     fill="none"
     stroke-linejoin="miter"
     d="m 15.707745,42.361738 c 0.0117,-11.890628 4.91016,-23.13672 13.72266,-30.988283 C 30.199935,10.68986 30.114,10.553143 29.172593,10.97111 18.793688,15.541423 11.696025,23.935955 9.1413377,34.91252 c -0.4921875,2.124998 -0.742185,4.19922 -0.7460925,6.234375 -0.0156,25.3125 -0.0156,50.523443 -0.0078,75.632825 0,0.0781 0.031275,0.14844 0.085942,0.20703 0.058575,0.0547 0.1289025,0.0859 0.20703,0.0859 h 6.7187468 c 0.08203,0 0.152348,-0.0313 0.214846,-0.0898 0.05857,-0.0586 0.08593,-0.13281 0.08593,-0.21485 -0.0156,-25.019525 -0.0117,-49.820315 0.0078,-74.406252"
     stroke="#808080"
     stroke-width="1.5"
     stroke-opacity="1"
     stroke-miterlimit="4"
     id="path3" />
  <path
     stroke-linecap="butt"
     fill="none"
     stroke-linejoin="miter"
     d="m 44.28978,10.939865 c -9.07422,3.964845 -15.308595,10.39062 -18.707032,19.27734 -1.410158,3.69141 -2.11719,6.949223 -2.124998,9.769538 -0.04687,24.906247 -0.05078,50.503905 -0.0156,76.792977 0,0.19531 0.09766,0.29296 0.289065,0.29296 h 6.718748 c 0.183592,0 0.273442,-0.0937 0.273442,-0.27734 0.04298,-23.492192 0.03517,-47.167975 -0.0234,-71.031257 -0.0078,-4.699215 0.210938,-8.32422 0.664058,-10.878908 1.640625,-9.253905 6.019537,-17.124997 13.14063,-23.613285 0.60156,-0.542962 0.52734,-0.652342 -0.214845,-0.332025"
     stroke="#808080"
     stroke-width="1.5"
     stroke-opacity="1"
     stroke-miterlimit="4"
     id="path4" />
  <path
     stroke-linecap="butt"
     fill="none"
     stroke-linejoin="miter"
     d="m 56.000715,12.50627 c -9.257812,5.367188 -14.921872,13.10547 -16.996095,23.21094 -0.484372,2.367188 -0.722655,5.749995 -0.71484,10.148438 0.04687,24.59766 0.06247,48.230467 0.04297,70.902342 0,0.20313 0.101565,0.30469 0.30078,0.30469 h 36.800783 c 0.195315,0 0.292972,-0.0977 0.292972,-0.28906 0.0117,-23.886717 0.0156,-47.781252 0.0156,-71.67188 0,-4.429687 -0.238282,-7.718752 -0.71484,-9.867187 C 72.774138,25.111738 66.95773,17.424238 57.58273,12.178145 c -0.16797,-0.09766 -0.347655,-0.121095 -0.535155,-0.07813 -0.382815,0.08594 -0.73047,0.22266 -1.04688,0.406252"
     stroke="#808080"
     stroke-width="1.5"
     stroke-opacity="1"
     stroke-miterlimit="4"
     id="path5" />
  <path
     fill="#000000"
     d="m 90.774137,116.68595 c 0.0156,-23.605474 0.0117,-48.265624 -0.0156,-73.976564 -0.0156,-17.36328 -9.00391,-32.17969 -24.28906,-40.52734 -0.82032,-0.44531 -0.77735,-0.5586 0.1289,-0.33594 16.10938,3.98828 28.3711,16.77734 31.14844,33.15625 0.44141,2.59375 0.66016,5.82422 0.65234,9.68359 -0.0469,24.55469 -0.0508,48.58594 -0.0156,72.097664 0,0.19141 0.0937,0.28516 0.28515,0.28516 h 6.699223 c 0.22266,0 0.33203,-0.10938 0.33203,-0.33204 -0.043,-23.968754 -0.0391,-48.363284 0.0195,-73.191404 0.008,-3.55469 -0.20704,-6.60938 -0.64844,-9.16797 -2.39063,-13.94922 -11.414063,-25.77734 -23.710943,-32.19922 -0.72656,-0.3789 -0.69141,-0.48047 0.10547,-0.29687 16.1875,3.64843 28.703123,17.13671 31.351563,33.38671 0.42578,2.60547 0.63672,6.24219 0.625,10.91016 -0.043,26.32813 -0.043,52.37891 0,78.152344 0,0.22266 -0.11328,0.33204 -0.33203,0.33204 H 0.95773724 c -0.1211,0 -0.1836,-0.0586 -0.1836,-0.17969 0.0391,-33.332034 0.0312,-60.101564 -0.0234,-80.312504 -0.0156,-4.08594 0.22656,-7.39453 0.73045996,-9.92188 4.44141,-22.44922 26.0468798,-37.27343 48.7460998,-32.65625 16.3125,3.3125 29.07812,16.01953 32.33203,32.16016 0.55078,2.74219 0.82031,6.10547 0.80859,10.08594 -0.0586,24.57812 -0.0664,48.89453 -0.0234,72.949224 0,0.1875 0.0937,0.28125 0.28125,0.28125 h 6.76562 c 0.25781,0 0.38281,-0.125 0.38281,-0.38282 z M 15.703827,42.357826 c 0.0195,-11.89063 4.91016,-23.13281 13.72656,-30.98438 0.76953,-0.6875 0.67969,-0.82031 -0.25781,-0.40625 -10.37891,4.57422 -17.47656,12.96485 -20.0312498,23.94532 -0.49609,2.12109 -0.74219,4.19921 -0.74609,6.23046 -0.0156,25.31641 -0.0156,50.52735 0,75.632824 0,0.082 0.0273,0.15234 0.0859,0.20703 0.0547,0.0586 0.125,0.0859 0.20704,0.0859 h 6.7148398 c 0.082,0 0.15625,-0.0273 0.21484,-0.0898 0.0586,-0.0586 0.0859,-0.1289 0.0859,-0.21484 -0.0117,-25.015634 -0.0117,-49.816414 0,-74.406254 z m 28.58594,-31.41797 c -9.07422,3.96484 -15.3086,10.39062 -18.70703,19.27734 -1.41016,3.69141 -2.11719,6.94922 -2.125,9.76953 -0.0469,24.90235 -0.0508,50.5 -0.0156,76.789074 0,0.19531 0.0937,0.29297 0.28906,0.29297 h 6.71875 c 0.1836,0 0.27344,-0.0898 0.27344,-0.27344 0.043,-23.492194 0.0352,-47.171884 -0.0234,-71.035164 -0.0117,-4.69531 0.21094,-8.32422 0.66407,-10.875 1.64062,-9.2539 6.01953,-17.125 13.14062,-23.61328 0.59766,-0.54297 0.52735,-0.65234 -0.21484,-0.33203 z m 11.71094,1.5625 c -9.25782,5.37109 -14.92579,13.10937 -17,23.21484 -0.48047,2.36719 -0.71875,5.7461 -0.71094,10.14453 0.0469,24.59766 0.0625,48.23438 0.043,70.902354 0,0.20312 0.0977,0.30469 0.29687,0.30469 h 36.80078 c 0.19532,0 0.29297,-0.0937 0.29297,-0.28516 0.0117,-23.890634 0.0195,-47.781254 0.0195,-71.675784 0,-4.42578 -0.23828,-7.71485 -0.71484,-9.86328 -2.25391,-10.13282 -8.07031,-17.82032 -17.44531,-23.06641 -0.17188,-0.0977 -0.34766,-0.125 -0.53516,-0.0781 -0.38281,0.0859 -0.73047,0.21875 -1.04687,0.40234 z m 0,0"
     fill-opacity="1"
     fill-rule="nonzero"
     id="path6" />
  <path
     fill="#f2fd19"
     d="m 29.430387,11.373446 c -8.8164,7.85157 -13.71484,19.09375 -13.72656,30.98438 -0.0156,24.58984 -0.0156,49.39062 0,74.406254 0,0.0859 -0.0273,0.15625 -0.0859,0.21484 -0.0586,0.0625 -0.13281,0.0898 -0.21484,0.0898 H 8.6882472 c -0.082,0 -0.15235,-0.0273 -0.20704,-0.0859 -0.0586,-0.0547 -0.0859,-0.125 -0.0859,-0.20703 -0.0117,-25.105474 -0.0117,-50.316414 0,-75.632824 0,-2.03125 0.24609,-4.10937 0.74609,-6.23046 2.5546898,-10.98047 9.6523398,-19.3711 20.0312498,-23.94532 0.9375,-0.41406 1.02734,-0.28125 0.25781,0.40625 z m 0,0"
     fill-opacity="1"
     fill-rule="nonzero"
     id="path7" />
  <path
     fill="#f2fd19"
     d="m 44.289767,10.939856 c 0.74219,-0.32031 0.8125,-0.21094 0.21484,0.33203 -7.12109,6.48828 -11.5,14.35938 -13.14062,23.61328 -0.45313,2.55078 -0.67578,6.17969 -0.66407,10.875 0.0586,23.86328 0.0664,47.54297 0.0234,71.035164 0,0.18359 -0.0937,0.27344 -0.27734,0.27344 h -6.71485 c -0.19531,0 -0.29296,-0.0977 -0.29296,-0.29297 -0.0312,-26.289074 -0.0273,-51.886724 0.0156,-76.789074 0.0117,-2.82031 0.72266,-6.07812 2.12891,-9.76953 3.39453,-8.88672 9.63281,-15.3125 18.70703,-19.27734 z m 0,0"
     fill-opacity="1"
     fill-rule="nonzero"
     id="path8" />
  <path
     fill="#f2fd19"
     d="m 56.000707,12.502356 c 0.3125,-0.18359 0.66406,-0.31641 1.04687,-0.40234 0.1875,-0.0469 0.36328,-0.0195 0.53125,0.0781 9.37891,5.24609 15.19531,12.93359 17.44922,23.06641 0.47656,2.14843 0.71484,5.4375 0.71484,9.86328 0,23.89453 -0.008,47.78515 -0.0195,71.675784 0,0.19141 -0.0977,0.28516 -0.29297,0.28516 h -36.80078 c -0.19922,0 -0.29687,-0.10157 -0.29687,-0.30469 0.0195,-22.667974 0.004,-46.304694 -0.0469,-70.902354 -0.008,-4.39843 0.23047,-7.77734 0.71485,-10.14453 2.07421,-10.10547 7.74218,-17.84375 17,-23.21484 z m 0,0"
     fill-opacity="1"
     fill-rule="nonzero"
     id="path9" />
</svg>
