<?xml version="1.0" encoding="UTF-8"?>
<svg version="1.1" xmlns="http://www.w3.org/2000/svg" width="280" height="280">
<path d="M0 0 C4.35256003 1.85170036 8.08863233 4.36184994 12 7 C13.65503086 7.91715211 15.32192202 8.8132292 17 9.6875 C22.43855932 12.62021149 27.71287363 15.80558322 33 19 C38.92528444 22.5780912 44.85410285 26.08626623 50.9609375 29.34765625 C59.05599381 33.74895293 67.01100607 38.41000637 75 43 C76.07459473 43.61681641 77.14918945 44.23363281 78.25634766 44.86914062 C100.29487343 57.52486423 100.29487343 57.52486423 110.0625 63.375 C110.97298096 63.91966919 110.97298096 63.91966919 111.90185547 64.4753418 C115.86967437 66.86967437 115.86967437 66.86967437 117 68 C117.11985163 70.45227188 117.17451887 72.87727179 117.18754578 75.33097839 C117.19545586 76.10755792 117.20336594 76.88413746 117.21151572 77.6842497 C117.23673282 80.30665187 117.25454211 82.92905054 117.2722168 85.55151367 C117.28829306 87.42367811 117.30467278 89.29583996 117.32133484 91.16799927 C117.46608459 108.27198581 117.54108614 125.37670793 117.60025311 142.48118114 C117.64485207 155.13159319 117.72202409 167.78092315 117.84183758 180.43085116 C117.92318017 189.31749595 117.96638055 198.20384369 117.98155528 207.09084493 C117.99173447 212.40240774 118.01913033 217.71260879 118.08786583 223.02376366 C118.15183812 228.02206635 118.1686854 233.01831817 118.14937019 238.01697159 C118.15052486 239.85125007 118.16881466 241.68561002 118.205513 243.51952171 C118.46901572 257.40427213 118.46901572 257.40427213 114.7956028 261.39454079 C112.22797328 262.96299656 109.83985054 264.03026448 107 265 C106.06929687 265.52207031 105.13859375 266.04414063 104.1796875 266.58203125 C102.49323164 267.48242718 100.80555933 268.38054568 99.1171875 269.27734375 C96.73912901 270.59153397 94.4397529 271.94905444 92.1328125 273.37890625 C78.76465967 281.56205834 78.76465967 281.56205834 72.09375 280.94921875 C64.20855497 278.52989755 57.09497001 274.12363577 50 270 C47.9595448 268.82671521 45.91823953 267.65493599 43.8762207 266.484375 C42.17197665 265.50068964 40.47816854 264.49898661 38.78515625 263.49609375 C35.53192859 261.72719624 35.53192859 261.72719624 32 261 C29.37494936 262.07407046 29.37494936 262.07407046 26.67578125 263.7890625 C25.64646484 264.40136719 24.61714844 265.01367188 23.55664062 265.64453125 C22.48607422 266.29808594 21.41550781 266.95164062 20.3125 267.625 C18.2048889 268.88879133 16.0968228 270.15182418 13.98828125 271.4140625 C12.9715332 272.0237085 11.95478516 272.63335449 10.90722656 273.26147461 C9.9478418 273.83518799 8.98845703 274.40890137 8 275 C7.14631836 275.51248291 6.29263672 276.02496582 5.41308594 276.55297852 C-0.60424989 280.05307471 -5.01026419 281.34940733 -12 280 C-15.95303803 278.41993393 -19.42024703 276.2894897 -23 274 C-25.16593904 272.66548499 -27.33262994 271.33218964 -29.5 270 C-30.59441406 269.319375 -31.68882813 268.63875 -32.81640625 267.9375 C-36.53815792 265.67248303 -40.33472418 263.59234816 -44.171875 261.53125 C-54.78161695 255.78674883 -65.14296304 249.58045251 -75.55493164 243.48852539 C-82.54377398 239.40867838 -89.56974609 235.40121395 -96.625 231.4375 C-104.59188085 226.9585862 -112.50484931 222.39692244 -120.375 217.75 C-121.80320068 216.90779907 -121.80320068 216.90779907 -123.26025391 216.04858398 C-129.87100584 212.12899416 -129.87100584 212.12899416 -131 211 C-131.11832151 209.16651243 -131.16634882 207.32846641 -131.18754578 205.49128723 C-131.20337204 204.2953595 -131.2191983 203.09943176 -131.23550415 201.86726379 C-131.2479152 200.52975624 -131.26014666 199.192247 -131.2722168 197.85473633 C-131.28829455 196.45547143 -131.30467428 195.05620998 -131.32133484 193.6569519 C-131.46611756 180.86987515 -131.54110036 168.08181549 -131.60025311 155.29408741 C-131.64483277 145.83852823 -131.72196787 136.38441881 -131.84183758 126.92950803 C-131.92324312 120.28488979 -131.96639056 113.64066888 -131.98155528 106.99557322 C-131.99172509 103.02520229 -132.01903724 99.05665569 -132.08786583 95.08683205 C-132.15195488 91.34905059 -132.1686576 87.61401144 -132.14937019 83.87575912 C-132.15107137 81.8536581 -132.202419 79.83178893 -132.25531006 77.81037903 C-132.21080781 74.26577594 -132.08487433 71.37599777 -131 68 C-128.00307176 65.08804748 -124.81016529 63.61760229 -121 62 C-119.47558948 61.09828891 -117.96356285 60.17483987 -116.47265625 59.21875 C-109.43355038 54.87667366 -102.40937651 50.58083414 -95.109375 46.6875 C-79.35784552 38.13893124 -63.9405896 28.93910153 -48.42285156 19.97607422 C-44.86356181 17.92123176 -41.30306101 15.86850228 -37.7421875 13.81640625 C-35.96453572 12.79174012 -34.18690179 11.76704305 -32.40927124 10.74234009 C-30.72718141 9.77287032 -29.04486781 8.80378886 -27.36254883 7.8347168 C-26.3392749 7.244729 -25.31600098 6.65474121 -24.26171875 6.046875 C-23.36412842 5.52963867 -22.46653809 5.01240234 -21.54174805 4.47949219 C-19.79849451 3.46478501 -18.07397841 2.41739454 -16.36669922 1.34326172 C-11.36930432 -1.49309755 -5.51914433 -0.81678669 0 0 Z " fill="#DD254E" transform="translate(147,0)"/>
<path d="M0 0 C4.35256003 1.85170036 8.08863233 4.36184994 12 7 C13.65503086 7.91715211 15.32192202 8.8132292 17 9.6875 C22.43855932 12.62021149 27.71287363 15.80558322 33 19 C38.92528444 22.5780912 44.85410285 26.08626623 50.9609375 29.34765625 C59.05599381 33.74895293 67.01100607 38.41000637 75 43 C76.07459473 43.61681641 77.14918945 44.23363281 78.25634766 44.86914062 C99.985419 57.34715861 99.985419 57.34715861 110.0625 63.3125 C110.97298096 63.84460083 110.97298096 63.84460083 111.90185547 64.38745117 C115.88301524 66.76603049 115.88301524 66.76603049 117 69 C116.34225586 69.35626465 115.68451172 69.7125293 115.00683594 70.07958984 C108.04863586 73.8601547 101.138887 77.71977664 94.25 81.625 C93.26128906 82.18445313 92.27257812 82.74390625 91.25390625 83.3203125 C90.28839844 83.866875 89.32289063 84.4134375 88.328125 84.9765625 C87.40708984 85.49379883 86.48605469 86.01103516 85.53710938 86.54394531 C83.97810834 87.43866069 82.43346112 88.3597283 80.91601562 89.32324219 C76.57974215 92.05392251 76.57974215 92.05392251 73.64550781 91.78100586 C70.6342313 90.8920179 68.26920457 89.63541014 65.5625 88.04296875 C63.98843384 87.12487427 63.98843384 87.12487427 62.38256836 86.18823242 C61.2663208 85.52799072 60.15007324 84.86774902 59 84.1875 C57.83191692 83.50353494 56.66337284 82.8203566 55.49438477 82.13793945 C53.71419334 81.09845688 51.93437677 80.05837763 50.15614319 79.01554871 C44.7757606 75.86028989 39.36055511 72.76860741 33.9375 69.6875 C27.57844771 66.06375096 21.24374074 62.40239747 14.9375 58.6875 C14.2468042 58.28257324 13.5561084 57.87764648 12.84448242 57.46044922 C9.69048328 55.60730797 6.55609511 53.73285403 3.45703125 51.7890625 C2.39871094 51.13679688 1.34039062 50.48453125 0.25 49.8125 C-0.65234375 49.24144531 -1.5546875 48.67039063 -2.484375 48.08203125 C-5.58860049 46.74682867 -6.78069747 47.11828591 -10 48 C-12.31383597 49.0693373 -12.31383597 49.0693373 -14.58984375 50.44140625 C-15.449729 50.93874268 -16.30961426 51.4360791 -17.19555664 51.94848633 C-18.10039795 52.48111084 -19.00523926 53.01373535 -19.9375 53.5625 C-21.83071331 54.66148565 -23.7239425 55.76044394 -25.6171875 56.859375 C-26.99922363 57.66665039 -26.99922363 57.66665039 -28.40917969 58.49023438 C-31.78028101 60.45469825 -35.1696467 62.38594466 -38.5625 64.3125 C-46.82005512 69.01700352 -55.01268624 73.83377159 -63.2109375 78.640625 C-65.265625 79.84375 -67.3203125 81.046875 -69.375 82.25 C-70.41527344 82.86101562 -71.45554688 83.47203125 -72.52734375 84.1015625 C-74.04134766 84.98714844 -74.04134766 84.98714844 -75.5859375 85.890625 C-76.4836084 86.41688477 -77.3812793 86.94314453 -78.30615234 87.48535156 C-81.15247703 89.08573206 -84.07934501 90.53967251 -87 92 C-87.33 123.35 -87.66 154.7 -88 187 C-86.35 187.66 -84.7 188.32 -83 189 C-80.62084403 190.34386264 -78.27655884 191.71478151 -75.9375 193.125 C-68.1567928 197.75987105 -60.30766482 202.26938119 -52.4375 206.75 C-40.4286075 213.59112138 -28.47489432 220.52191056 -16.5534668 227.51464844 C-13.37934399 229.36103558 -10.18826177 231.17813613 -7 233 C-7 248.51 -7 264.02 -7 280 C-15.94782268 278.88152217 -15.94782268 278.88152217 -19.3125 276.3125 C-22.51748562 274.00994207 -25.70663151 271.98792815 -29.1875 270.125 C-38.57814313 265.09755444 -47.77145051 259.73524965 -56.9375 254.3125 C-63.59903378 250.37353271 -70.31748397 246.54403589 -77.0625 242.75 C-88.1809404 236.49268406 -99.2104112 230.08998467 -110.21435547 223.63378906 C-112.89259929 222.06299085 -115.5729789 220.49590005 -118.25390625 218.9296875 C-119.81520571 218.01579846 -121.37641015 217.10174705 -122.9375 216.1875 C-124.00266846 215.56548706 -124.00266846 215.56548706 -125.08935547 214.9309082 C-129.88494502 212.11505498 -129.88494502 212.11505498 -131 211 C-131.11832151 209.16651243 -131.16634882 207.32846641 -131.18754578 205.49128723 C-131.20337204 204.2953595 -131.2191983 203.09943176 -131.23550415 201.86726379 C-131.2479152 200.52975624 -131.26014666 199.192247 -131.2722168 197.85473633 C-131.28829455 196.45547143 -131.30467428 195.05620998 -131.32133484 193.6569519 C-131.46611756 180.86987515 -131.54110036 168.08181549 -131.60025311 155.29408741 C-131.64483277 145.83852823 -131.72196787 136.38441881 -131.84183758 126.92950803 C-131.92324312 120.28488979 -131.96639056 113.64066888 -131.98155528 106.99557322 C-131.99172509 103.02520229 -132.01903724 99.05665569 -132.08786583 95.08683205 C-132.15195488 91.34905059 -132.1686576 87.61401144 -132.14937019 83.87575912 C-132.15107137 81.8536581 -132.202419 79.83178893 -132.25531006 77.81037903 C-132.21080781 74.26577594 -132.08487433 71.37599777 -131 68 C-128.00307176 65.08804748 -124.81016529 63.61760229 -121 62 C-119.47558948 61.09828891 -117.96356285 60.17483987 -116.47265625 59.21875 C-109.43355038 54.87667366 -102.40937651 50.58083414 -95.109375 46.6875 C-79.35784552 38.13893124 -63.9405896 28.93910153 -48.42285156 19.97607422 C-44.86356181 17.92123176 -41.30306101 15.86850228 -37.7421875 13.81640625 C-35.96453572 12.79174012 -34.18690179 11.76704305 -32.40927124 10.74234009 C-30.72718141 9.77287032 -29.04486781 8.80378886 -27.36254883 7.8347168 C-26.3392749 7.244729 -25.31600098 6.65474121 -24.26171875 6.046875 C-23.36412842 5.52963867 -22.46653809 5.01240234 -21.54174805 4.47949219 C-19.79849451 3.46478501 -18.07397841 2.41739454 -16.36669922 1.34326172 C-11.36930432 -1.49309755 -5.51914433 -0.81678669 0 0 Z " fill="#778ABE" transform="translate(147,0)"/>
<path d="M0 0 C0.50974365 0.35118896 1.0194873 0.70237793 1.54467773 1.06420898 C7.88319564 5.36697799 14.42544716 9.24091562 21.0625 13.0625 C23.13741715 14.26050996 25.21165031 15.45970544 27.28515625 16.66015625 C28.19144775 17.18230713 29.09773926 17.70445801 30.03149414 18.24243164 C31.01110107 18.8224292 31.99070801 19.40242676 33 20 C33.66262816 20.30981874 34.32525633 20.61963749 35.00796413 20.93884468 C40.55465889 23.7908633 40.55465889 23.7908633 41.72633457 26.97205639 C41.98690611 29.44374801 41.99030073 31.80405814 41.90820312 34.28833008 C41.90937134 35.21564941 41.91053955 36.14296875 41.91174316 37.09838867 C41.9061788 40.15697152 41.84400636 43.21163181 41.78125 46.26953125 C41.76632557 48.39228688 41.75493951 50.5150701 41.74694824 52.63786316 C41.71643044 58.21992328 41.63786892 63.80031293 41.54931641 69.38171387 C41.46741815 75.07911581 41.43092816 80.77678823 41.390625 86.47460938 C41.30487564 97.65047278 41.16837162 108.82509739 41 120 C41.61938446 120.14484833 42.23876892 120.28969666 42.87692261 120.43893433 C45.22107282 121.05842291 46.97425043 121.97995697 49.0703125 123.1953125 C49.87057861 123.65599121 50.67084473 124.11666992 51.49536133 124.59130859 C52.79703247 125.35048584 52.79703247 125.35048584 54.125 126.125 C55.04369873 126.65561035 55.96239746 127.1862207 56.90893555 127.73291016 C58.89958497 128.88310749 60.88904145 130.03537138 62.87744141 131.18945312 C66.02260918 133.01310944 69.17262124 134.82810582 72.32421875 136.640625 C84.29818078 143.52984066 96.24749928 150.46049819 108.1730957 157.43310547 C109.09952881 157.97467285 110.02596191 158.51624023 110.98046875 159.07421875 C111.78379639 159.54432373 112.58712402 160.01442871 113.41479492 160.4987793 C116.60051292 162.34871602 119.80148547 164.17227741 123 166 C123 181.51 123 197.02 123 213 C114.05217732 211.88152217 114.05217732 211.88152217 110.6875 209.3125 C107.48251438 207.00994207 104.29336849 204.98792815 100.8125 203.125 C91.42185687 198.09755444 82.22854949 192.73524965 73.0625 187.3125 C66.40096622 183.37353271 59.68251603 179.54403589 52.9375 175.75 C41.8190596 169.49268406 30.7895888 163.08998467 19.78564453 156.63378906 C17.10740071 155.06299085 14.4270211 153.49590005 11.74609375 151.9296875 C10.18479429 151.01579846 8.62358985 150.10174705 7.0625 149.1875 C5.99733154 148.56548706 5.99733154 148.56548706 4.91064453 147.9309082 C0.11505498 145.11505498 0.11505498 145.11505498 -1 144 C-1.09866627 142.15469827 -1.12632156 140.30557912 -1.12698364 138.4576416 C-1.12980347 137.25448807 -1.13262329 136.05133453 -1.13552856 134.8117218 C-1.13358397 133.46627793 -1.13153579 132.1208342 -1.12939453 130.77539062 C-1.13074854 129.3680161 -1.13252847 127.96064193 -1.13470459 126.55326843 C-1.13927895 122.72072932 -1.13748935 118.88821701 -1.1343255 115.05567741 C-1.13180192 111.05359701 -1.13413944 107.05151897 -1.13571167 103.04943848 C-1.13753337 96.32738837 -1.13512705 89.60534923 -1.13037109 82.88330078 C-1.12492847 75.10061276 -1.12669113 67.31795093 -1.1321975 59.53526354 C-1.13672862 52.86521699 -1.13737918 46.19517834 -1.13475883 39.52513075 C-1.13319605 35.53614338 -1.13300232 31.54716835 -1.13629532 27.55818176 C-1.13917402 23.80884888 -1.13719837 20.05954992 -1.13140106 16.31022072 C-1.13007346 14.93029143 -1.13046759 13.55035931 -1.13266373 12.17043114 C-1.13537517 10.29440789 -1.13138046 8.41837845 -1.12698364 6.5423584 C-1.12660662 5.49004784 -1.12622959 4.43773727 -1.12584114 3.35353851 C-1 1 -1 1 0 0 Z " fill="#B2BFE8" transform="translate(17,67)"/>
<path d="M0 0 C0.23354495 24.66906041 0.40991565 49.33795531 0.51812172 74.00789833 C0.56969816 85.46250983 0.64002003 96.91643469 0.75439453 108.37060547 C0.85403006 118.35347743 0.91857313 128.3358522 0.94088495 138.31920755 C0.95392904 143.60622919 0.9846044 148.8918284 1.05730057 154.17839432 C1.12517308 159.15448583 1.14611858 164.12856923 1.13107681 169.10507965 C1.13382838 170.93131044 1.15372924 172.75760821 1.19205475 174.58343887 C1.46800662 188.40773918 1.46800662 188.40773918 -2.20341873 192.38991928 C-4.77089224 193.95816926 -7.16119276 195.02771654 -10 196 C-10.93070313 196.52207031 -11.86140625 197.04414063 -12.8203125 197.58203125 C-13.58085937 197.98808594 -14.34140625 198.39414062 -15.125 198.8125 C-18.47980367 200.60971625 -21.79526342 202.45428689 -25.078125 204.37890625 C-25.7882373 204.79100342 -26.49834961 205.20310059 -27.22998047 205.62768555 C-28.63509345 206.44474931 -30.03539625 207.27015514 -31.43017578 208.10473633 C-32.40446533 208.66777466 -32.40446533 208.66777466 -33.3984375 209.2421875 C-34.25961182 209.75048096 -34.25961182 209.75048096 -35.13818359 210.26904297 C-37.49272326 211.19344525 -39.4900625 211.0481055 -42 211 C-42.56161599 186.73104041 -42.98431916 162.46305919 -43.24349213 138.1889019 C-43.36705554 126.9165262 -43.53535459 115.64819577 -43.81054688 104.37841797 C-44.05041014 94.55072908 -44.20473704 84.7259691 -44.25812387 74.8954345 C-44.28932357 69.69228344 -44.36210098 64.49750698 -44.53752136 59.29705429 C-45.56288654 27.69777729 -45.56288654 27.69777729 -39.67181396 19.93021393 C-34.06116922 15.08168624 -27.9082212 12.38248321 -20.92593384 10.06296158 C-16.62211531 8.49942871 -12.97774162 6.15504869 -9.1875 3.625 C-3.46928 0 -3.46928 0 0 0 Z " fill="#24386C" transform="translate(264,69)"/>
<path d="M0 0 C0.86367187 0.49628906 1.72734375 0.99257812 2.6171875 1.50390625 C3.21160645 1.8191626 3.80602539 2.13441895 4.41845703 2.45922852 C6.58629348 3.60999402 8.72723759 4.80211112 10.8671875 6.00390625 C11.64626465 6.44025391 12.4253418 6.87660156 13.22802734 7.32617188 C15.694448 8.71288254 18.1564487 10.10714036 20.6171875 11.50390625 C21.44186523 11.97054687 22.26654297 12.4371875 23.11621094 12.91796875 C25.49715957 14.27041557 27.87084637 15.63469692 30.2421875 17.00390625 C30.98243164 17.42478516 31.72267578 17.84566406 32.48535156 18.27929688 C34.23045854 19.29720653 35.92966776 20.39313376 37.6171875 21.50390625 C37.6171875 22.16390625 37.6171875 22.82390625 37.6171875 23.50390625 C37.00875 23.83261719 36.4003125 24.16132812 35.7734375 24.5 C30.0108005 27.62707802 24.27337677 30.79733607 18.5546875 34.00390625 C17.91917969 34.3589624 17.28367188 34.71401855 16.62890625 35.07983398 C15.3674495 35.78892267 14.11272611 36.5101534 12.86579895 37.24449158 C10.6171875 38.50390625 10.6171875 38.50390625 8.0723114 39.67092896 C2.83475187 42.18466395 2.83475187 42.18466395 -0.29951477 46.81671143 C-0.63749675 49.63841808 -0.66474608 52.3117999 -0.578125 55.15234375 C-0.58617157 56.16487213 -0.59421814 57.17740051 -0.60250854 58.22061157 C-0.61746231 61.44201334 -0.56361857 64.65803012 -0.5078125 67.87890625 C-0.50587006 70.06770902 -0.50842395 72.25652071 -0.515625 74.4453125 C-0.52344221 79.79937604 -0.47484042 85.15067781 -0.3828125 90.50390625 C-3.82012148 89.16373316 -6.8731411 87.70390251 -10.0078125 85.75390625 C-13.50551796 83.6181392 -17.0264656 81.57569528 -20.6328125 79.62890625 C-27.27163405 76.02085106 -33.82243179 72.25269523 -40.3828125 68.50390625 C-40.3828125 52.99390625 -40.3828125 37.48390625 -40.3828125 21.50390625 C-29.8203125 15.56640625 -29.8203125 15.56640625 -26.37133789 13.6328125 C-21.75289115 11.03047514 -17.16483806 8.41232708 -12.69140625 5.56640625 C-12.01601807 5.139646 -11.34062988 4.71288574 -10.64477539 4.27319336 C-9.41636252 3.48757494 -8.19738771 2.68693342 -6.98999023 1.86938477 C-4.4458262 0.24810746 -3.02043996 -0.6288457 0 0 Z " fill="#7487BC" transform="translate(141.3828125,94.49609375)"/>
<path d="M0 0 C0.38204474 6.81171613 0.64362729 13.62065957 0.82397461 20.44067383 C0.89916915 22.75682739 1.00136871 25.07227427 1.1315918 27.38598633 C2.15916737 46.12009933 2.15916737 46.12009933 -1.43408203 50.91278076 C-4.93891638 53.95551168 -8.8389565 55.73384509 -13.17449951 57.29736328 C-15.77770804 58.2993405 -18.03831459 59.74119939 -20.375 61.25 C-21.91660586 62.16676893 -23.45827044 63.08343912 -25 64 C-25.79148438 64.48726563 -26.58296875 64.97453125 -27.3984375 65.4765625 C-28.56246094 66.16878906 -28.56246094 66.16878906 -29.75 66.875 C-30.42546875 67.28492188 -31.1009375 67.69484375 -31.796875 68.1171875 C-34 69 -34 69 -40 69 C-40 53.49 -40 37.98 -40 22 C-36.143125 19.855 -32.28625 17.71 -28.3125 15.5 C-20.13369129 10.94081672 -12.03556781 6.32436261 -4.16015625 1.2578125 C-2 0 -2 0 0 0 Z " fill="#293A6D" transform="translate(180,211)"/>
<path d="M0 0 C11.25137431 5.62568716 11.25137431 5.62568716 16.05078125 8.4453125 C17.07880859 9.04730469 18.10683594 9.64929688 19.16601562 10.26953125 C20.20435547 10.88183594 21.24269531 11.49414062 22.3125 12.125 C23.37017578 12.74503906 24.42785156 13.36507812 25.51757812 14.00390625 C28.34787132 15.66458301 31.17622107 17.3282722 34 19 C34.92603027 19.34699951 35.85206055 19.69399902 36.80615234 20.05151367 C39 22 39 22 39.42588806 24.04138184 C39.58244297 26.82684232 39.5609296 29.56649497 39.48828125 32.35546875 C39.48120651 33.37224197 39.47413177 34.3890152 39.46684265 35.43659973 C39.43882918 38.68764484 39.37607585 41.93697453 39.3125 45.1875 C39.28742621 47.38994911 39.26461145 49.59242518 39.24414062 51.79492188 C39.1889801 57.19720096 39.10528492 62.59847795 39 68 C37.57977539 67.18595703 37.57977539 67.18595703 36.13085938 66.35546875 C34.86850628 65.63278333 33.60613555 64.91012872 32.34375 64.1875 C31.72209961 63.83107422 31.10044922 63.47464844 30.45996094 63.10742188 C26.8284666 61.02955897 23.1799347 58.9913657 19.5 57 C12.94837854 53.42638829 6.47958662 49.70262092 0 46 C0 30.82 0 15.64 0 0 Z " fill="#B1BEE7" transform="translate(101,117)"/>
<path d="M0 0 C0.22867356 6.29811588 0.3859904 12.59515878 0.49438477 18.89648438 C0.53957687 21.03849279 0.60094654 23.18022459 0.67895508 25.32128906 C0.78847371 28.40499015 0.83923294 31.48501819 0.87890625 34.5703125 C0.92535782 35.52366486 0.97180939 36.47701721 1.01966858 37.45925903 C1.0217695 40.24228277 0.91266311 42.36733699 0 45 C-2.69260302 47.6565678 -5.64914258 49.29384855 -9 51 C-10.40905354 51.84521622 -11.81363754 52.69799138 -13.2109375 53.5625 C-14.59700214 54.37833264 -15.98505143 55.19080222 -17.375 56 C-18.105979 56.42716309 -18.83695801 56.85432617 -19.59008789 57.29443359 C-36.26201264 67 -36.26201264 67 -39 67 C-39.33101493 60.73929684 -39.55778509 54.4808587 -39.71411133 48.21337891 C-39.77929148 46.084592 -39.86787133 43.95638295 -39.98071289 41.82958984 C-40.89161688 24.21328366 -40.89161688 24.21328366 -36.43725586 19.00146484 C-33.04001209 16.89866077 -29.72338924 15.43637224 -26 14 C-24.07287801 12.9222925 -22.163509 11.81194458 -20.27734375 10.6640625 C-18.49867924 9.64878995 -16.71874921 8.63573095 -14.9375 7.625 C-14.02806641 7.10550781 -13.11863281 6.58601563 -12.18164062 6.05078125 C-1.55759448 0 -1.55759448 0 0 0 Z " fill="#26376B" transform="translate(180,117)"/>
</svg>
